<!DOCTYPE svg PUBLIC "-//W3C//DTD SVG 1.1//EN" "http://www.w3.org/Graphics/SVG/1.1/DTD/svg11.dtd">
<!-- Uploaded to: SVG Repo, www.svgrepo.com, Transformed by: SVG Repo Mixer Tools -->
<svg fill="#000000" height="64px" width="64px" version="1.1" id="Layer_1" xmlns="http://www.w3.org/2000/svg" xmlns:xlink="http://www.w3.org/1999/xlink" viewBox="0 0 491.52 491.52" xml:space="preserve">
<g id="SVGRepo_bgCarrier" stroke-width="0"/>
<g id="SVGRepo_tracerCarrier" stroke-linecap="round" stroke-linejoin="round"/>
<g id="SVGRepo_iconCarrier"> <g> <g> <path d="M471.04,163.84h-32.768c-8.192,0-16.384,6.144-20.48,14.336l-18.432,81.92l-14.336-40.96 c0-8.192-8.192-14.336-16.384-14.336h-40.96v-20.48c0-12.288-8.192-20.48-20.48-20.48H81.92c-10.24,0-20.48,8.192-20.48,20.48 v163.84c0,2.048,0,6.144,2.048,8.192l28.672,61.44c4.096,8.192,10.24,12.288,18.432,12.288H358.4 c8.192,0,14.336-4.096,18.432-10.24l18.432-30.72h6.144l18.432,49.152c4.096,8.192,10.24,12.288,18.432,12.288h32.768 c12.288,0,20.48-8.192,20.48-20.48V184.32C491.52,172.032,483.328,163.84,471.04,163.84z M458.752,421.888l-24.576-61.44 c-4.096-6.144-10.24-12.288-20.48-12.288h-32.768c-8.192,0-14.336,4.096-18.432,10.24l-16.384,30.72H124.928L102.4,344.064V204.8 h184.32v20.48c0,12.288,8.192,20.48,20.48,20.48h47.104l8.192,26.624c2.048,8.192,10.24,14.336,18.432,14.336h32.768 c8.192,0,16.384-6.144,20.48-14.336l24.576-81.92V421.888z"/> </g> </g> <g> <g> <path d="M81.92,266.24H20.48C8.192,266.24,0,274.432,0,286.72c0,12.288,10.24,20.48,20.48,20.48h61.44 c12.288,0,20.48-8.192,20.48-20.48C102.4,274.432,94.208,266.24,81.92,266.24z"/> </g> </g> <g> <g> <path d="M20.48,225.28C8.192,225.28,0,233.472,0,245.76v81.92c0,12.288,8.192,20.48,20.48,20.48c12.288,0,20.48-8.192,20.48-20.48 v-81.92C40.96,233.472,32.768,225.28,20.48,225.28z"/> </g> </g> <g> <g> <path d="M245.76,102.4h-81.92c-10.24,0-20.48,8.192-20.48,20.48v61.44c0,12.288,10.24,20.48,20.48,20.48h81.92 c12.288,0,20.48-8.192,20.48-20.48v-61.44C266.24,110.592,258.048,102.4,245.76,102.4z M225.28,163.84h-40.96v-20.48h40.96V163.84 z"/> </g> </g> <g> <g> <path d="M286.72,40.96H122.88c-10.24,0-20.48,8.192-20.48,20.48v61.44c0,12.288,10.24,20.48,20.48,20.48h163.84 c12.288,0,20.48-8.192,20.48-20.48V61.44C307.2,49.152,299.008,40.96,286.72,40.96z M266.24,102.4H143.36V81.92h122.88V102.4z"/> </g> </g> </g>
</svg>