<svg width="155" height="35" viewBox="0 0 155 35" fill="none" xmlns="http://www.w3.org/2000/svg">
<path d="M27.0179 32.0055L26.308 31.2998C26.2485 31.2418 26.156 31.2349 26.091 31.2845C26.0886 31.2845 26.0855 31.2893 26.0834 31.2916C25.876 31.4492 25.6198 31.5415 25.3409 31.5415C24.6712 31.5415 24.1296 31.0015 24.1296 30.3403C24.1296 29.6756 24.6712 29.136 25.3409 29.136C25.6198 29.136 25.876 29.2313 26.0834 29.3889C26.0855 29.3909 26.0886 29.3937 26.091 29.3954C26.156 29.4425 26.2485 29.4381 26.308 29.38L27.0179 28.6726V28.6702C27.0832 28.6056 27.0832 28.5024 27.0179 28.4375C27.0148 28.433 27.0103 28.4286 27.0082 28.4262C26.5611 28.0428 25.9771 27.8077 25.3409 27.8077C23.9332 27.8077 22.7944 28.9398 22.7944 30.3403C22.7944 31.7359 23.9332 32.8701 25.3409 32.8701C25.9771 32.8701 26.5611 32.6347 27.0082 32.2536C27.0103 32.2488 27.0148 32.2444 27.0179 32.2427C27.0832 32.1761 27.0832 32.0722 27.0179 32.0072V32.0055" fill="#18397A"/>
<path d="M34.5908 29.8653C34.6183 29.5874 34.7091 29.3605 34.87 29.1814C35.032 29.0048 35.2391 28.9159 35.4932 28.9159C35.659 28.9159 35.7969 28.9398 35.8987 28.9897C36.0064 29.0389 36.0899 29.1039 36.1529 29.1883C36.2141 29.27 36.2574 29.3697 36.2843 29.4859C36.3159 29.6021 36.3279 29.7296 36.3279 29.8653H34.5908ZM37.4502 30.5474C37.5719 30.4305 37.6349 30.2107 37.6349 29.8933C37.6349 29.2225 37.4564 28.7092 37.0918 28.3466C36.7296 27.9888 36.1869 27.8077 35.4637 27.8077C35.1111 27.8077 34.7975 27.8658 34.5151 27.9803C34.2327 28.092 33.9916 28.2605 33.7908 28.4826C33.5879 28.703 33.4331 28.9727 33.3286 29.2894C33.2188 29.6042 33.1655 29.965 33.1655 30.37C33.1655 31.2373 33.3602 31.8719 33.7478 32.2704C34.1375 32.6699 34.7411 32.8701 35.5483 32.8701C35.8065 32.8701 36.0899 32.8363 36.3933 32.7731C36.697 32.7061 36.9608 32.6029 37.1912 32.4542C37.195 32.4515 37.2342 32.4238 37.2431 32.4173C37.2865 32.3698 37.2992 32.2987 37.2741 32.2403L36.9876 31.5955L36.9828 31.5804C36.9725 31.563 36.9628 31.5456 36.9477 31.5326C36.9119 31.4957 36.8552 31.4789 36.807 31.4878C36.795 31.4899 36.7575 31.4984 36.7458 31.5052C36.5807 31.5736 36.4105 31.6276 36.2248 31.6706C36.0415 31.7161 35.8599 31.7359 35.6779 31.7359C35.5235 31.7359 35.3801 31.7209 35.247 31.6884C35.1146 31.658 34.9983 31.6043 34.8993 31.524C34.8026 31.4444 34.7215 31.3385 34.6623 31.2113C34.6042 31.0822 34.5712 30.9181 34.5626 30.7216H36.9405C37.1582 30.7216 37.3264 30.6639 37.4502 30.5474" fill="#18397A"/>
<path d="M5.11255 26.4872C5.11255 26.479 5.10908 26.4719 5.10908 26.4661C5.10705 26.4285 5.08971 26.3926 5.06045 26.3642C5.03101 26.3321 4.98778 26.3167 4.94853 26.3167C4.9453 26.3147 4.93563 26.3147 4.93347 26.3147H0.176951C0.173718 26.3147 0.164846 26.3147 0.162954 26.3167C0.122543 26.3167 0.0811335 26.3321 0.0487699 26.3642C0.0193641 26.3926 0.00536527 26.4285 0 26.4661C0 26.4719 0 26.479 0 26.4872C0 26.4937 0 26.5002 0 26.5112V27.3286C0 27.3395 0.00536717 27.3781 0.00753391 27.3952C0.0141029 27.4215 0.0291661 27.4448 0.0487699 27.4643C0.0725353 27.4906 0.104004 27.508 0.141217 27.5101C0.148474 27.5118 0.159617 27.5148 0.171414 27.5148C0.173718 27.5148 0.175713 27.5148 0.176951 27.5148H1.81811V32.592C1.81811 32.5944 1.81811 32.5961 1.81811 32.5985C1.81811 32.6073 1.8181 32.6179 1.82147 32.6285C1.8235 32.6593 1.84084 32.6931 1.86381 32.7198C1.88531 32.7406 1.91055 32.7536 1.93862 32.7608C1.95368 32.7639 1.99399 32.7666 2.00259 32.7666H3.05222C3.05869 32.7666 3.06646 32.7666 3.07736 32.7666C3.08152 32.7666 3.08916 32.7666 3.0959 32.7666C3.1339 32.7625 3.1683 32.7471 3.19543 32.7198C3.22835 32.6866 3.24341 32.6456 3.24341 32.605C3.24341 32.605 3.24341 32.5961 3.24341 32.592V27.5148H4.93347C4.93563 27.5148 4.93791 27.5148 4.93791 27.5148C4.9519 27.5148 4.9605 27.5118 4.97044 27.5101C5.00428 27.508 5.03345 27.4906 5.06045 27.4643C5.08222 27.4448 5.09618 27.4215 5.10385 27.3952C5.10705 27.3781 5.11255 27.3395 5.11255 27.3286V26.5112C5.11255 26.5002 5.11255 26.4937 5.11255 26.4872" fill="#18397A"/>
<path d="M21.6956 28.092C21.6956 28.0486 21.6774 28.0086 21.6461 27.9775C21.6189 27.9502 21.5832 27.9345 21.546 27.9287C21.5374 27.9287 21.5316 27.9287 21.5243 27.9287C21.5168 27.9287 21.5082 27.9287 21.4992 27.9287H20.5342C20.527 27.9287 20.4843 27.9331 20.4702 27.9372C20.4454 27.9434 20.4203 27.9567 20.4 27.9775C20.3725 28.0042 20.3584 28.0356 20.3529 28.0708C20.3512 28.0766 20.3512 28.09 20.3512 28.0989C20.3512 28.1006 20.3512 28.103 20.3512 28.103V28.8039V29.6797H18.6164V28.092C18.6164 28.0486 18.5989 28.0086 18.5662 27.9775C18.537 27.9502 18.5012 27.9345 18.4665 27.9287C18.4589 27.9287 18.4489 27.9287 18.4424 27.9287C18.4359 27.9287 18.4287 27.9287 18.4197 27.9287H17.4591C17.4471 27.9287 17.4068 27.9331 17.389 27.9372C17.3635 27.9434 17.3377 27.9567 17.3205 27.9775C17.2964 28.0042 17.2755 28.0356 17.2724 28.0708C17.2724 28.0766 17.271 28.09 17.271 28.0989C17.271 28.1006 17.271 28.103 17.271 28.103V32.592C17.271 32.5944 17.271 32.5961 17.271 32.5985C17.271 32.6073 17.2724 32.6179 17.2724 32.6285C17.2755 32.6593 17.2964 32.6931 17.3205 32.7198C17.3377 32.7406 17.3635 32.7536 17.389 32.7608C17.4068 32.7639 17.4471 32.7666 17.4591 32.7666H18.4197C18.4287 32.7666 18.4359 32.7666 18.4424 32.7666C18.4489 32.7666 18.4589 32.7666 18.4665 32.7666C18.5012 32.7625 18.537 32.7471 18.5662 32.7198C18.5989 32.6866 18.6164 32.6456 18.6164 32.605V30.7323H20.3512V32.592C20.3512 32.5944 20.3512 32.5961 20.3512 32.5985C20.3512 32.6073 20.3512 32.6179 20.3529 32.6285C20.3584 32.6593 20.3725 32.6931 20.4 32.7198C20.4203 32.7406 20.4454 32.7536 20.4702 32.7608C20.4843 32.7639 20.527 32.7666 20.5342 32.7666H21.4992C21.5082 32.7666 21.5168 32.7666 21.5243 32.7666C21.5316 32.7666 21.5374 32.7666 21.546 32.7666C21.5832 32.7625 21.6189 32.7471 21.6461 32.7198C21.6774 32.6866 21.6956 32.6456 21.6956 32.605C21.6956 32.605 21.6956 32.5961 21.6956 32.592V28.103V28.092" fill="#18397A"/>
<path d="M32.9792 26.4872C32.9792 26.479 32.9792 26.4719 32.9761 26.4661C32.974 26.4285 32.9575 26.3926 32.9303 26.3642C32.897 26.3321 32.8567 26.3167 32.8155 26.3167C32.8134 26.3147 32.8058 26.3147 32.8024 26.3147H28.0459C28.0438 26.3147 28.0318 26.3147 28.0318 26.3167C27.9915 26.3167 27.9482 26.3321 27.9145 26.3642C27.8842 26.3926 27.8722 26.4285 27.8698 26.4661C27.8698 26.4719 27.8698 26.479 27.8667 26.4872C27.8667 26.4937 27.8667 26.5002 27.8667 26.5112V27.3286C27.8667 27.3395 27.8722 27.3781 27.8743 27.3952C27.8822 27.4215 27.8959 27.4448 27.9145 27.4643C27.9417 27.4906 27.9743 27.508 28.0111 27.5101C28.0191 27.5118 28.0253 27.5148 28.0394 27.5148C28.0394 27.5148 28.0438 27.5148 28.0459 27.5148H29.685V32.592C29.685 32.5944 29.685 32.5961 29.685 32.5985C29.685 32.6073 29.685 32.6179 29.6885 32.6285C29.6936 32.6593 29.7077 32.6931 29.7339 32.7198C29.7556 32.7406 29.7803 32.7536 29.8054 32.7608C29.8206 32.7639 29.8622 32.7666 29.8708 32.7666H30.9225C30.927 32.7666 30.9342 32.7666 30.9438 32.7666C30.9497 32.7666 30.9562 32.7666 30.9648 32.7666C31.003 32.7625 31.0343 32.7471 31.0659 32.7198C31.0948 32.6866 31.1127 32.6456 31.1137 32.605C31.1137 32.605 31.1137 32.5961 31.1137 32.592V27.5148H32.8024C32.8058 27.5148 32.8058 27.5148 32.8079 27.5148C32.8179 27.5148 32.8275 27.5118 32.8375 27.5101C32.8729 27.508 32.9032 27.4906 32.9303 27.4643C32.9503 27.4448 32.9623 27.4215 32.9709 27.3952C32.974 27.3781 32.9792 27.3395 32.9792 27.3286V26.5112C32.9792 26.5002 32.9792 26.4937 32.9792 26.4872Z" fill="#18397A"/>
<path d="M8.66784 31.3861C8.47022 31.5952 8.21843 31.6984 7.9081 31.6984C7.80572 31.6984 7.69301 31.6923 7.56713 31.679C7.44002 31.6684 7.29481 31.6404 7.13413 31.597V29.0797C7.2392 29.0497 7.36411 29.0264 7.50182 29.0063C7.64087 28.9895 7.75454 28.9789 7.84052 28.9789C8.01758 28.9789 8.17368 29.0022 8.31273 29.0439C8.45288 29.0869 8.57003 29.1594 8.66784 29.2639C8.76214 29.3695 8.83574 29.5049 8.88696 29.6795C8.936 29.8521 8.96069 30.0636 8.96069 30.3158C8.96069 30.8188 8.86195 31.1773 8.66784 31.3861V31.3861ZM10.2525 29.3579C10.1699 29.0497 10.0409 28.7848 9.85831 28.5607C9.67396 28.3354 9.43174 28.1567 9.13104 28.0252C8.83306 27.8936 8.46375 27.8269 8.02187 27.8269C7.69194 27.8269 7.34007 27.8543 6.97131 27.911C6.66164 27.9565 6.38058 28.032 6.12009 28.1352C6.11672 28.1352 6.1127 28.1372 6.10933 28.1396C5.92044 28.2189 5.78906 28.4052 5.78906 28.6208V34.473C5.78906 34.475 5.78906 34.4767 5.78906 34.4791C5.78906 34.4897 5.79346 34.4983 5.79346 34.5075C5.79443 34.541 5.81283 34.5748 5.83904 34.5998C5.85623 34.6192 5.88106 34.6329 5.90727 34.6408C5.92474 34.6432 5.96275 34.6479 5.97351 34.6479H6.93878C6.94617 34.6479 6.95463 34.6479 6.96124 34.6479C6.96901 34.6479 6.97654 34.6479 6.98648 34.6479C7.01995 34.6432 7.05902 34.6278 7.08495 34.5998C7.11772 34.568 7.13062 34.5266 7.13413 34.4836C7.13413 34.4836 7.13413 34.475 7.13413 34.473V32.7404C7.33147 32.7845 7.51138 32.8118 7.66801 32.8272C7.82842 32.8426 7.99811 32.8504 8.18283 32.8504C8.55672 32.8504 8.88238 32.7845 9.15859 32.6519C9.43174 32.5203 9.65986 32.3392 9.83802 32.1137C10.0213 31.8867 10.1527 31.6216 10.2428 31.3174C10.3274 31.0126 10.3697 30.6873 10.3697 30.3421C10.3697 29.9922 10.3295 29.6668 10.2525 29.3579" fill="#18397A"/>
<path d="M71.9688 27.9287H71.5245C71.4447 27.9287 71.3804 27.9345 71.3291 27.941C71.2755 27.9523 71.2259 27.9673 71.1885 27.9888C71.1482 28.0104 71.1094 28.0428 71.0712 28.0818C71.0344 28.1221 70.9959 28.1699 70.9515 28.2321C70.7499 28.5646 70.5697 28.8517 70.427 29.0885C70.2743 29.3294 70.1453 29.54 70.027 29.717C69.9902 29.7792 69.9524 29.8373 69.9173 29.8933C69.8795 29.95 69.8348 30.0167 69.7859 30.0983C69.7374 30.1807 69.6738 30.286 69.5964 30.4127C69.5177 30.5385 69.4231 30.7001 69.3037 30.896H69.2573V28.105V28.0838C69.2552 28.0452 69.2404 28.0086 69.2119 27.9775C69.1806 27.9454 69.1366 27.9287 69.0967 27.9287H68.0787C68.0381 27.9287 67.9944 27.9454 67.9648 27.9775C67.9304 28.0103 67.9136 28.051 67.9136 28.0941V32.2427C67.9136 32.5335 68.153 32.7666 68.4422 32.7666H68.868C69.0172 32.7666 69.1318 32.7495 69.2043 32.7133C69.2766 32.676 69.3557 32.592 69.4468 32.4652C69.5926 32.2427 69.7374 32.0206 69.8815 31.7957C70.0225 31.5716 70.1639 31.3494 70.3059 31.1273C70.4428 30.9182 70.5714 30.7087 70.7035 30.4975C70.8273 30.2836 70.9635 30.07 71.1076 29.8547H71.1517V32.5961V32.6073C71.1541 32.648 71.1668 32.689 71.1988 32.7198C71.2311 32.7509 71.2755 32.7666 71.3147 32.7666H71.3185C71.3243 32.7666 71.3264 32.7666 71.3291 32.7666H72.3293C72.3729 32.7666 72.4146 32.7509 72.4489 32.7198C72.4802 32.6866 72.4964 32.6456 72.4964 32.605V28.4529C72.4964 28.1635 72.2588 27.9287 71.9688 27.9287" fill="#18397A"/>
<path d="M65.2194 31.3535C65.2032 31.4185 65.1709 31.4772 65.1272 31.5326C65.0818 31.589 65.0199 31.6344 64.9394 31.6707C64.8644 31.7076 64.7668 31.7267 64.6505 31.7267H63.4822V30.6376H64.6581C64.8572 30.6376 65.0058 30.6875 65.0966 30.7862C65.196 30.8836 65.2441 31.0128 65.2441 31.1745C65.2441 31.2291 65.2366 31.2893 65.2194 31.3535V31.3535ZM63.4822 28.9614H64.6282C64.7534 28.9614 64.8483 28.9986 64.9184 29.0755C64.9834 29.1535 65.0199 29.244 65.0199 29.35C65.0199 29.4962 64.9773 29.6004 64.8865 29.6606C64.7939 29.7228 64.7025 29.7535 64.6007 29.7535H63.4822V28.9614ZM66.4692 30.6161C66.3564 30.4049 66.1573 30.2426 65.8752 30.1308V30.0768C66.052 29.977 66.1906 29.8437 66.2821 29.6756C66.375 29.5051 66.4187 29.3329 66.4187 29.1535C66.4187 28.9289 66.3808 28.7372 66.2955 28.5845C66.2126 28.4286 66.0971 28.3039 65.9537 28.2062C65.8085 28.105 65.6373 28.0356 65.4477 27.9933C65.2541 27.9523 65.0526 27.9287 64.8349 27.9287H62.6805C62.3895 27.9287 62.1543 28.1635 62.1543 28.4529V32.2427C62.1543 32.526 62.3765 32.7536 62.6554 32.7666C62.6674 32.7666 62.6729 32.7666 62.6805 32.7666C62.6853 32.7666 62.6881 32.7666 62.6905 32.7666C62.6987 32.7666 62.7022 32.7666 62.7101 32.7666H64.8541C65.1069 32.7666 65.3411 32.7328 65.5647 32.6613C65.7848 32.592 65.9702 32.4888 66.128 32.3565C66.2852 32.2253 66.4101 32.0657 66.4991 31.8822C66.5886 31.6987 66.6336 31.4957 66.6336 31.2763C66.6336 31.0473 66.5806 30.8273 66.4692 30.6161" fill="#18397A"/>
<path d="M43.0053 32.5143L42.9984 32.5051L41.4683 30.1957L42.8227 28.1931L42.834 28.1781C42.8712 28.1155 42.8626 28.0321 42.8093 27.9757C42.7759 27.9453 42.7332 27.9286 42.6937 27.9286H42.6882H41.8026C41.8005 27.9286 41.7874 27.9286 41.7874 27.9286C41.5893 27.933 41.4212 28.0407 41.3335 28.2003L40.7251 29.2918L40.1428 28.2235L40.1208 28.1828C40.0317 28.0338 39.8652 27.933 39.6788 27.9286C39.6771 27.9286 39.6596 27.9286 39.6575 27.9286H38.7616C38.7179 27.9286 38.6766 27.9453 38.6443 27.9757C38.5893 28.0321 38.581 28.1135 38.6199 28.1781L39.9636 30.2148L38.4355 32.5099L38.4317 32.5143C38.3884 32.5789 38.3956 32.6654 38.4524 32.7197C38.4837 32.7508 38.5222 32.7665 38.5621 32.7665H38.581H39.4487C39.4567 32.7686 39.4797 32.7686 39.4869 32.7665C39.6647 32.7624 39.8236 32.6681 39.9158 32.5259L40.7178 31.1467L41.4955 32.5143C41.5869 32.6654 41.75 32.7665 41.9391 32.7665C41.9422 32.7665 41.9422 32.7686 41.9453 32.7686C41.9477 32.7686 41.9512 32.7665 41.9532 32.7665H42.8605L42.8626 32.7686L42.8653 32.7665C42.9585 32.7665 43.0294 32.693 43.0294 32.6028C43.0294 32.57 43.0211 32.5403 43.0053 32.5143" fill="#18397A"/>
<path d="M77.8423 32.0055L77.1325 31.2998C77.0709 31.2418 76.9791 31.2349 76.9165 31.2845C76.9137 31.2845 76.9106 31.2893 76.9082 31.2916C76.7015 31.4492 76.4426 31.5415 76.1629 31.5415C75.4954 31.5415 74.9523 31.0015 74.9523 30.3403C74.9523 29.6756 75.4954 29.136 76.1629 29.136C76.4426 29.136 76.7015 29.2313 76.9082 29.3889C76.9106 29.3909 76.9137 29.3937 76.9165 29.3954C76.9791 29.4425 77.0709 29.4381 77.1325 29.38L77.8423 28.6726V28.6702C77.9077 28.6056 77.9077 28.5024 77.8423 28.4375C77.841 28.433 77.8351 28.4286 77.8293 28.4262C77.3828 28.0428 76.802 27.8077 76.1629 27.8077C74.7587 27.8077 73.6172 28.9398 73.6172 30.3403C73.6172 31.7359 74.7587 32.8701 76.1629 32.8701C76.802 32.8701 77.3828 32.6347 77.8293 32.2536C77.8351 32.2488 77.841 32.2444 77.8423 32.2427C77.9077 32.1761 77.9077 32.0722 77.8423 32.0072V32.0055" fill="#18397A"/>
<path d="M51.9985 29.8653C52.0226 29.5874 52.1144 29.3605 52.275 29.1814C52.4373 29.0048 52.6444 28.9159 52.8996 28.9159C53.0643 28.9159 53.2022 28.9398 53.3054 28.9897C53.4093 29.0389 53.4953 29.1039 53.5555 29.1883C53.617 29.27 53.6638 29.3697 53.6906 29.4859C53.7181 29.6021 53.7333 29.7296 53.7333 29.8653H51.9985ZM54.8555 30.5474C54.9773 30.4305 55.0388 30.2107 55.0388 29.8933C55.0388 29.2225 54.8576 28.7092 54.4982 28.3466C54.1343 27.9888 53.5923 27.8077 52.8676 27.8077C52.5164 27.8077 52.1987 27.8658 51.9208 27.9803C51.635 28.092 51.397 28.2605 51.1944 28.4826C50.9932 28.703 50.8402 28.9727 50.7325 29.2894C50.6245 29.6042 50.5698 29.965 50.5698 30.37C50.5698 31.2373 50.7621 31.8719 51.1531 32.2704C51.5435 32.6699 52.1443 32.8701 52.956 32.8701C53.2132 32.8701 53.4953 32.8363 53.7986 32.7731C54.0989 32.7061 54.3637 32.6029 54.5945 32.4542C54.6 32.4515 54.6385 32.4238 54.6436 32.4173C54.6928 32.3698 54.7028 32.2987 54.6818 32.2403C54.6784 32.2403 54.3909 31.5955 54.3909 31.5955L54.3867 31.5804C54.3788 31.563 54.3668 31.5456 54.3541 31.5326C54.3152 31.4957 54.2605 31.4789 54.2096 31.4878C54.1989 31.4899 54.1642 31.4984 54.1501 31.5052C53.985 31.5736 53.8137 31.6276 53.6284 31.6706C53.4457 31.7161 53.2617 31.7359 53.0829 31.7359C52.9288 31.7359 52.7847 31.7209 52.6523 31.6884C52.5185 31.658 52.4019 31.6043 52.3046 31.524C52.2049 31.4444 52.1254 31.3385 52.0666 31.2113C52.0085 31.0822 51.9772 30.9181 51.9693 30.7216H54.3424C54.5594 30.7216 54.7303 30.6639 54.8555 30.5474" fill="#18397A"/>
<path d="M59.1596 31.3861C58.9601 31.5952 58.7091 31.6984 58.3975 31.6984C58.3008 31.6984 58.1853 31.6923 58.0583 31.679C57.9321 31.6684 57.788 31.6404 57.6257 31.597V29.0797C57.7299 29.0497 57.8523 29.0264 57.9937 29.0063C58.1323 28.9895 58.2465 28.9789 58.3318 28.9789C58.5068 28.9789 58.6633 29.0022 58.8033 29.0439C58.9453 29.0869 59.0626 29.1594 59.1596 29.2639C59.2538 29.3695 59.3298 29.5049 59.3787 29.6795C59.4275 29.8521 59.4516 30.0636 59.4516 30.3158C59.4516 30.8188 59.3536 31.1773 59.1596 31.3861V31.3861ZM60.742 29.3579C60.6622 29.0497 60.5291 28.7848 60.3458 28.5607C60.1646 28.3354 59.9235 28.1567 59.6229 28.0252C59.3247 27.8936 58.9553 27.8269 58.5165 27.8269C58.1804 27.8269 57.8307 27.8543 57.463 27.911C57.1535 27.9565 56.8687 28.032 56.6104 28.1352C56.609 28.1352 56.6028 28.1372 56.5984 28.1396C56.4113 28.2189 56.2778 28.4052 56.2778 28.6208V34.473C56.2778 34.475 56.2799 34.4767 56.2799 34.4791C56.2799 34.4897 56.2799 34.4983 56.2799 34.5075C56.2895 34.541 56.3009 34.5748 56.326 34.5998C56.3501 34.6192 56.3769 34.6329 56.3992 34.6408C56.4161 34.6432 56.4574 34.6479 56.4642 34.6479H57.431C57.4355 34.6479 57.4434 34.6479 57.4554 34.6479C57.463 34.6479 57.4668 34.6479 57.473 34.6479C57.5112 34.6432 57.5476 34.6278 57.5737 34.5998C57.6071 34.568 57.6257 34.5266 57.6257 34.4836C57.6257 34.4836 57.6257 34.475 57.6257 34.473V32.7404C57.8224 32.7845 58.0009 32.8118 58.1584 32.8272C58.3201 32.8426 58.49 32.8504 58.6774 32.8504C59.0471 32.8504 59.3708 32.7845 59.648 32.6519C59.9235 32.5203 60.1515 32.3392 60.3327 32.1137C60.5133 31.8867 60.6443 31.6216 60.731 31.3174C60.8187 31.0126 60.86 30.6873 60.86 30.3421C60.86 29.9922 60.8242 29.6668 60.742 29.3579" fill="#18397A"/>
<path d="M14.4283 31.6884C14.3685 31.7161 14.2983 31.7339 14.2244 31.7485C14.1515 31.766 14.0755 31.7766 14.007 31.7851C13.9345 31.7957 13.8695 31.8001 13.8065 31.8049C13.7443 31.8083 13.6954 31.8084 13.661 31.8084C13.411 31.8084 13.215 31.766 13.0671 31.6792C12.924 31.5955 12.8501 31.4444 12.8501 31.2291C12.8501 31.0822 12.8786 30.9636 12.9347 30.8795C12.988 30.7934 13.0619 30.7254 13.1455 30.6786C13.2267 30.6359 13.3171 30.6054 13.4165 30.5925C13.5135 30.5795 13.6088 30.575 13.6954 30.575H14.4283V31.6884ZM15.3023 28.2284C14.9917 27.941 14.4988 27.7991 13.8258 27.7991C13.5242 27.7991 13.2191 27.8207 12.913 27.8637C12.6079 27.9068 12.3194 27.9758 12.0436 28.0729C12.0391 28.0749 12.0339 28.0766 12.0339 28.0766C12.0119 28.0859 11.9968 28.0968 11.9806 28.1135C11.9417 28.1521 11.9263 28.2061 11.9338 28.2564C11.9338 28.2605 11.9393 28.28 11.9417 28.2906L12.0889 28.9251C12.0889 28.931 12.089 28.9333 12.0914 28.9378C12.0989 28.9655 12.1165 28.9935 12.1347 29.0157C12.1725 29.054 12.2272 29.0714 12.2791 29.0605C12.2812 29.0605 12.2836 29.0605 12.2867 29.0605C12.2994 29.0605 12.3104 29.0567 12.3214 29.0519C12.4116 29.0287 12.5096 29.0065 12.62 28.9832C12.7307 28.9614 12.8456 28.9443 12.9608 28.9289C13.0801 28.9118 13.1995 28.9009 13.3137 28.8923C13.4344 28.8841 13.5359 28.8794 13.6304 28.8794C13.801 28.8794 13.942 28.8971 14.0483 28.9333C14.1515 28.9703 14.233 29.0178 14.2925 29.0755C14.3527 29.1343 14.3926 29.205 14.4087 29.2857C14.4283 29.3626 14.4356 29.4466 14.4356 29.5334V29.6797H13.4165C13.0822 29.6797 12.7943 29.7227 12.5505 29.8051C12.3063 29.8871 12.102 30.0037 11.9417 30.1499C11.7832 30.2993 11.6604 30.4715 11.5789 30.6697C11.4974 30.8703 11.4609 31.0907 11.4609 31.3303C11.4609 31.5439 11.4929 31.7468 11.5624 31.9341C11.6277 32.1193 11.7474 32.284 11.9122 32.4218C12.0804 32.5622 12.3042 32.6699 12.5777 32.7495C12.849 32.8298 13.1974 32.8701 13.6139 32.8701C13.7718 32.8701 13.9345 32.8619 14.1057 32.8506C14.2808 32.8377 14.4497 32.8209 14.6206 32.7943C14.7919 32.771 14.957 32.7365 15.122 32.6931C15.2304 32.6654 15.3683 32.6135 15.4553 32.581C15.6441 32.499 15.7755 32.3162 15.7755 32.1022V29.4962C15.7755 28.9378 15.617 28.5151 15.3023 28.2284" fill="#18397A"/>
<path d="M49.8735 31.8952C49.8735 31.85 49.8566 31.8083 49.8271 31.779L49.8233 31.7766L49.0195 30.9742C48.9507 30.9116 48.8479 30.9116 48.7815 30.9742L48.7795 30.9766C48.4579 31.2459 48.038 31.4099 47.5826 31.4099C47.0653 31.4099 46.5952 31.2025 46.2554 30.8665L46.255 30.8618C45.9152 30.5255 45.7051 30.059 45.7051 29.5464C45.7051 29.0328 45.9152 28.5687 46.2537 28.2321C46.5921 27.8938 47.0612 27.6843 47.5802 27.6843C48.038 27.6843 48.4551 27.8466 48.7795 28.1183C48.8479 28.1829 48.9507 28.1829 49.0161 28.12L49.8233 27.318V27.3156C49.8546 27.2852 49.8735 27.2442 49.8735 27.199C49.8735 27.1539 49.8566 27.1129 49.8271 27.0853C49.8212 27.0805 49.8195 27.0788 49.8161 27.0788C49.2228 26.5477 48.4386 26.2244 47.5802 26.2244C46.655 26.2244 45.82 26.5955 45.215 27.199C44.608 27.7991 44.2358 28.6292 44.2358 29.5464C44.2358 30.463 44.608 31.2916 45.2095 31.891L45.215 31.8952C45.2167 31.8952 45.2167 31.8952 45.2167 31.8952C45.2167 31.8969 45.2188 31.8969 45.2188 31.8969C45.82 32.499 46.6605 32.8701 47.5826 32.8701C48.4414 32.8701 49.2262 32.5489 49.8161 32.0185C49.8212 32.0141 49.8233 32.0117 49.8271 32.0093C49.8566 31.9819 49.8735 31.9409 49.8735 31.8952" fill="#18397A"/>
<path d="M10.9019 10.4634C11.0897 10.4634 11.2589 10.3882 11.3838 10.2652L17.797 3.89117H17.8001V3.88911C18.0628 3.62598 18.0628 3.19881 17.8001 2.93329C17.7884 2.92303 17.7729 2.91176 17.7609 2.89877C17.7564 2.89467 17.7523 2.88954 17.7468 2.88578C13.8305 -0.490204 7.98831 -0.492594 4.06527 2.87929C4.05248 2.88954 4.03394 2.90526 4.0185 2.9203C4.01447 2.92508 4.00897 2.92884 4.00347 2.93329C3.88952 3.04982 3.82208 3.19642 3.81038 3.34712C3.78971 3.54157 3.85472 3.74046 4.00347 3.89117L10.4187 10.2652C10.5429 10.3882 10.7117 10.4634 10.9019 10.4634" fill="#ED1639"/>
<path d="M10.9019 11.8512C11.0897 11.8512 11.2589 11.9261 11.3838 12.0491L17.797 18.4241L17.8001 18.4255C18.0628 18.6917 18.0628 19.1189 17.8001 19.3789C17.7884 19.3919 17.7729 19.4052 17.7609 19.4162C17.7564 19.4199 17.7523 19.4247 17.7468 19.4288C13.8305 22.8051 7.98831 22.8072 4.06527 19.4374C4.05248 19.4223 4.03394 19.4093 4.0185 19.395C4.01447 19.3905 4.00897 19.3885 4.00347 19.3813C3.88952 19.2672 3.82208 19.1189 3.81038 18.9671C3.78971 18.7727 3.85472 18.5731 4.00347 18.4241L10.4187 12.0491C10.5429 11.9261 10.7117 11.8512 10.9019 11.8512" fill="#18397A"/>
<path d="M2.46251 17.438C2.28762 17.438 2.10998 17.3584 2.00038 17.2053C0.705144 15.4361 0.019043 13.3392 0.019043 11.1392C0.019043 8.94078 0.705144 6.84391 1.99797 5.07509C2.18455 4.81845 2.54072 4.7648 2.79908 4.94763C3.05434 5.13114 3.11088 5.48962 2.92695 5.74387C0.562861 8.97154 0.562861 13.3092 2.92695 16.5338C3.11088 16.7907 3.05434 17.1465 2.79908 17.33C2.69923 17.4055 2.57968 17.438 2.46251 17.438" fill="#18397A"/>
<path d="M19.338 17.438C19.2225 17.438 19.1035 17.4055 19.0023 17.33C18.7461 17.1465 18.6876 16.7907 18.873 16.5338C21.2365 13.3092 21.2365 8.97154 18.8754 5.74387C18.6876 5.48962 18.7461 5.13114 19.0023 4.94763C19.2575 4.7648 19.6156 4.81845 19.8023 5.07509C21.0986 6.84391 21.7823 8.94078 21.7823 11.1392C21.7823 13.3392 21.0986 15.4361 19.8023 17.2053C19.6881 17.3584 19.5158 17.438 19.338 17.438" fill="#ED1639"/>
<path d="M78.7694 17.8288C78.7694 17.6623 78.7047 17.5113 78.6015 17.3972L78.5967 17.3927C78.585 17.3842 78.5754 17.3736 78.5654 17.365L75.89 14.7074C75.89 14.7074 75.89 14.7074 75.8886 14.7074C75.7751 14.5864 75.6107 14.5109 75.4274 14.5109C75.2758 14.5109 75.1378 14.5669 75.0267 14.653C75.0206 14.6575 75.0188 14.6595 75.0161 14.6619C74.2178 15.3198 73.1964 15.7124 72.0827 15.7124C69.5401 15.7124 67.4827 13.6651 67.4827 11.1414C67.4827 8.61973 69.5401 6.5748 72.0827 6.5748C73.1861 6.5748 74.2017 6.96062 74.993 7.60786C74.9941 7.61026 74.9999 7.61025 75.002 7.61264C75.1165 7.71585 75.2651 7.78043 75.4274 7.78043C75.619 7.78043 75.7879 7.69398 75.9076 7.56515C76.1187 7.35567 77.7754 5.70988 78.5909 4.89894C78.6015 4.88596 78.607 4.87502 78.618 4.86443C78.6335 4.84256 78.6531 4.82103 78.6672 4.79676C78.6731 4.7889 78.6772 4.78001 78.6827 4.77352C78.7384 4.67818 78.7673 4.57292 78.7673 4.45673C78.7673 4.27937 78.6934 4.11807 78.5754 4.00394C78.5754 4.00154 78.5754 4.00155 78.5754 4.00155C76.8592 2.45623 74.5821 1.51612 72.0827 1.51612C66.7281 1.51612 62.3926 5.8264 62.3926 11.1414C62.3926 16.4605 66.7281 20.769 72.0827 20.769C74.569 20.769 76.8372 19.8388 78.5499 18.3055C78.5554 18.3031 78.5579 18.2993 78.5599 18.2946C78.6879 18.1801 78.7694 18.014 78.7694 17.8288" fill="#ED1639"/>
<path d="M59.8724 6.40646H54.9931V19.8581C54.9931 20.085 54.9608 20.2422 54.8916 20.3263C54.828 20.4128 54.6327 20.4541 54.3114 20.4541H50.2582C49.8197 20.4541 49.5993 20.2552 49.5993 19.8581V6.40646H44.8373C44.4366 6.40646 44.2378 6.18912 44.2378 5.75307V2.57733C44.2378 2.25816 44.2791 2.06166 44.365 1.99707C44.4497 1.93009 44.6058 1.89831 44.8373 1.89831H59.8724C60.0984 1.89831 60.2579 1.93009 60.3412 1.99707C60.4271 2.06166 60.4736 2.25816 60.4736 2.57733V5.75307C60.4736 6.18912 60.2738 6.40646 59.8724 6.40646" fill="#ED1639"/>
<path d="M41.1256 2.56675C41.1256 2.19767 40.8274 1.89831 40.4525 1.89831C40.4484 1.89831 40.4477 1.89831 40.446 1.89831C40.4439 1.89831 40.4374 1.89831 40.4336 1.89831H25.5839C25.5797 1.89831 25.5763 1.89831 25.5763 1.89831C25.5729 1.89831 25.5705 1.89831 25.5643 1.89831C25.1942 1.89831 24.8926 2.19767 24.8926 2.56675C24.8926 2.56846 24.8926 2.57084 24.8926 2.57084C24.8926 2.57529 24.8926 2.57528 24.8926 2.57733V5.75307C24.8926 5.77187 24.8981 5.78963 24.8981 5.80877C24.9369 6.14538 25.219 6.40817 25.5643 6.40817C25.5763 6.40817 25.5797 6.40646 25.5873 6.40646H30.2568V19.7764C30.2568 19.7782 30.2568 19.7805 30.2568 19.7853C30.2568 19.7911 30.2568 19.8 30.2568 19.8089C30.2589 19.8311 30.263 19.852 30.2654 19.8735C30.306 20.18 30.5522 20.4169 30.8614 20.4466C30.8865 20.449 30.9082 20.4541 30.9288 20.4541H34.9659H34.9669C34.9714 20.4541 34.9731 20.4541 34.9731 20.4541C34.9896 20.4541 35.0003 20.449 35.0168 20.449C35.0192 20.449 35.0219 20.449 35.0257 20.4466C35.3452 20.4233 35.5997 20.1845 35.641 19.8711C35.6441 19.8496 35.6475 19.8263 35.6475 19.8089V6.40646H40.4302C40.4409 6.40646 40.446 6.40817 40.4525 6.40817C40.4594 6.40817 40.4684 6.40646 40.4742 6.40646H40.4921C40.5162 6.40646 40.5382 6.40167 40.5623 6.39552C40.8642 6.34631 41.0984 6.09822 41.1239 5.78724C41.1256 5.77426 41.1256 5.76366 41.1256 5.75307V2.57733C41.1256 2.57528 41.1256 2.57529 41.1256 2.57084C41.1256 2.57084 41.1256 2.56846 41.1256 2.56675" fill="#ED1639"/>
<path d="M130.977 15.2789C130.987 15.1046 131.032 14.9799 131.112 14.9054C131.193 14.8312 131.299 14.7943 131.434 14.7943H133.835C134.14 14.7943 134.292 14.9553 134.292 15.2789V20.0741C134.292 20.1257 134.283 20.1578 134.265 20.1708C134.247 20.1831 134.215 20.1896 134.168 20.1896H133.704C133.662 20.1896 133.631 20.1831 133.611 20.1708C133.59 20.1578 133.579 20.1257 133.579 20.0741V15.4251H131.635L131.573 16.2566C131.532 16.8416 131.489 17.3621 131.445 17.8186C131.401 18.2759 131.327 18.6709 131.221 19.0045C131.115 19.338 130.964 19.6124 130.768 19.8277C130.571 20.0437 130.298 20.1998 129.947 20.2972C129.915 20.3078 129.885 20.3078 129.853 20.2972C129.822 20.2873 129.796 20.2538 129.776 20.1971L129.699 19.8663C129.678 19.7997 129.679 19.7576 129.702 19.7395C129.726 19.7214 129.75 19.7074 129.776 19.6971C130.014 19.5994 130.198 19.4713 130.33 19.312C130.461 19.1535 130.562 18.9416 130.632 18.6774C130.702 18.4129 130.753 18.0845 130.787 17.6922C130.821 17.2992 130.858 16.818 130.899 16.2491L130.977 15.2789" fill="#18397A"/>
<path d="M139.804 20.1508C139.786 20.1768 139.746 20.1895 139.684 20.1895H137.53C137.277 20.1895 137.067 20.1536 136.899 20.0818C136.731 20.0097 136.597 19.9154 136.496 19.7971C136.396 19.6789 136.325 19.5402 136.283 19.3816C136.242 19.2223 136.221 19.0532 136.221 18.8734V16.1177C136.221 15.9434 136.244 15.7753 136.291 15.6136C136.338 15.452 136.414 15.3109 136.519 15.1899C136.625 15.0699 136.761 14.9732 136.926 14.9018C137.091 14.8297 137.293 14.7942 137.53 14.7942H139.645C139.702 14.7942 139.739 14.8065 139.757 14.8321C139.776 14.8581 139.785 14.8991 139.785 14.9551V15.2787C139.785 15.3351 139.776 15.3748 139.757 15.3984C139.739 15.4212 139.702 15.4329 139.645 15.4329H137.538C137.321 15.4329 137.165 15.4804 137.07 15.575C136.974 15.67 136.926 15.8177 136.926 16.0176V17.0182H139.39C139.446 17.0182 139.484 17.0311 139.502 17.0568C139.52 17.0824 139.529 17.1234 139.529 17.1798V17.4723C139.529 17.5239 139.52 17.5622 139.502 17.5878C139.484 17.6135 139.446 17.6265 139.39 17.6265H136.926V18.9654C136.926 19.1403 136.973 19.2798 137.066 19.385C137.158 19.4903 137.316 19.5429 137.538 19.5429H139.684C139.746 19.5429 139.786 19.5559 139.804 19.5812C139.822 19.6071 139.831 19.6481 139.831 19.7042V20.0278C139.831 20.0845 139.822 20.1255 139.804 20.1508" fill="#18397A"/>
<path d="M142.635 15.425H141.125C141.078 15.425 141.048 15.4165 141.035 15.3984C141.022 15.3802 141.016 15.3481 141.016 15.3016V14.9247C141.016 14.8837 141.022 14.8526 141.035 14.8321C141.048 14.8123 141.078 14.8017 141.125 14.8017H144.92C144.967 14.8017 144.996 14.8123 145.009 14.8321C145.022 14.8526 145.028 14.8837 145.028 14.9247V15.3016C145.028 15.3481 145.022 15.3802 145.009 15.3984C144.996 15.4165 144.967 15.425 144.92 15.425H143.363V20.0589C143.363 20.1156 143.353 20.1508 143.332 20.1666C143.311 20.1819 143.275 20.1895 143.224 20.1895H142.782C142.73 20.1895 142.693 20.1819 142.67 20.1666C142.647 20.1508 142.635 20.1156 142.635 20.0589V15.425" fill="#18397A"/>
<path d="M113.172 34.7952C108.852 34.9569 104.921 32.793 102.771 29.1679C102.516 28.739 102.689 28.1827 103.139 27.964L105.02 27.0509C105.418 26.8575 105.896 26.9993 106.129 27.3742C107.597 29.7403 110.213 31.139 113.078 31.0123C117.018 30.8383 120.263 27.6243 120.458 23.7104C120.679 19.2894 117.122 15.623 112.72 15.623C111.247 15.623 110.332 14.0319 111.08 12.7709L116.291 3.98113H105.923C105.447 3.98113 105.062 3.59805 105.062 3.12543V1.05351C105.062 0.580888 105.447 0.197804 105.923 0.197804H119.622C121.095 0.197804 122.01 1.78857 121.262 3.04957L115.805 12.2548C120.788 13.6279 124.429 18.2437 124.271 23.6619C124.096 29.6399 119.186 34.57 113.172 34.7952" fill="#ED1639"/>
<path d="M137.387 1.68115e-06C129.318 1.68115e-06 122.503 5.42297 120.428 12.7921C121.707 13.7162 122.799 14.8575 123.66 16.1561C124.342 9.22681 130.238 3.79359 137.387 3.79359C144.994 3.79359 151.182 9.9424 151.182 17.5002C151.182 25.058 144.994 31.2068 137.387 31.2068C132.489 31.2068 128.182 28.6547 125.734 24.8204C125.55 26.4078 125.076 27.9087 124.367 29.2722C127.59 32.7893 132.234 35 137.387 35C147.099 35 155 27.1497 155 17.5002C155 7.85065 147.099 1.68115e-06 137.387 1.68115e-06" fill="#18397A"/>
<path d="M92.3372 34.9395C92.1752 34.9395 92.0435 34.8093 92.0435 34.648V0.352267C92.0435 0.190969 92.1752 0.0607677 92.3372 0.0607677C92.4995 0.0607677 92.6309 0.190969 92.6309 0.352267V34.648C92.6309 34.8093 92.4995 34.9395 92.3372 34.9395Z" fill="#18397A"/>
</svg>
